<?xml version="1.0" standalone="no"?>
<!DOCTYPE svg PUBLIC "-//W3C//DTD SVG 20010904//EN"
 "http://www.w3.org/TR/2001/REC-SVG-20010904/DTD/svg10.dtd">
<svg version="1.0" xmlns="http://www.w3.org/2000/svg"
 width="700.000000pt" height="700.000000pt" viewBox="0 0 700.000000 700.000000"
 preserveAspectRatio="xMidYMid meet">
<metadata>
Created by potrace 1.11, written by Peter Selinger 2001-2013
</metadata>
<g transform="translate(0.000000,700.000000) scale(0.100000,-0.100000)"
fill="#000000" stroke="none">
<path d="M3329 6466 c-2 -2 -40 -6 -84 -9 -455 -31 -969 -209 -1375 -476 -601
-395 -1051 -1015 -1234 -1701 -76 -287 -101 -481 -101 -780 0 -176 7 -280 25
-413 12 -84 36 -216 44 -237 3 -8 7 -26 10 -40 10 -64 62 -235 106 -351 185
-487 478 -901 875 -1233 324 -272 672 -458 1085 -579 82 -24 147 -40 152 -37
2 1 15 -3 30 -9 15 -6 49 -13 75 -17 27 -3 51 -8 54 -10 3 -2 34 -6 70 -10 35
-3 66 -8 69 -9 31 -18 460 -26 625 -12 93 7 117 10 220 27 99 16 117 20 190
37 878 200 1622 797 2013 1613 50 106 138 323 146 363 2 7 6 19 9 27 45 116
105 422 125 630 9 98 9 423 -1 525 -7 80 -10 98 -27 210 -17 102 -17 105 -60
285 -10 46 -53 180 -79 250 -11 30 -27 74 -35 97 -8 23 -40 94 -71 159 -183
388 -459 744 -785 1014 -41 34 -85 70 -97 80 -12 10 -30 23 -41 29 -11 6 -26
17 -34 24 -48 46 -316 204 -464 273 -114 53 -292 124 -311 124 -7 0 -21 4 -31
10 -14 8 -137 46 -177 55 -5 1 -23 5 -40 9 -88 21 -112 26 -135 30 -14 2 -41
7 -60 10 -67 11 -83 14 -210 32 -43 5 -466 14 -471 10z m348 -480 c42 -21 81
-74 99 -133 18 -58 30 -203 18 -204 -59 -6 -78 -10 -115 -29 -51 -26 -141 -96
-159 -124 -10 -17 -10 -18 7 -11 39 17 153 44 210 49 58 5 61 4 88 -27 15 -18
37 -42 48 -54 l20 -22 -28 -58 c-154 -324 -138 -701 39 -899 76 -86 209 -162
311 -179 l40 -6 -49 31 c-188 122 -316 352 -318 572 -1 103 20 189 73 293 140
275 418 419 719 373 240 -37 450 -217 529 -455 28 -84 34 -123 33 -218 -1
-210 -98 -403 -267 -532 -54 -41 -69 -59 -68 -76 7 -57 4 -166 -5 -204 -9 -40
-8 -46 20 -85 47 -64 77 -138 80 -197 l3 -55 -50 -2 c-61 -3 -127 -19 -177
-45 -45 -23 -48 -30 -10 -24 76 13 157 10 247 -9 49 -10 115 -47 156 -87 60
-58 175 -213 198 -266 13 -28 61 -64 147 -107 143 -73 184 -132 159 -229 -35
-138 -174 -157 -395 -52 -62 29 -64 30 -180 104 -273 173 -500 409 -610 633
l-23 47 -50 -82 c-149 -243 -386 -480 -654 -652 -55 -35 -65 -47 -84 -95 -234
-603 -902 -1449 -1284 -1625 -98 -45 -151 -50 -212 -20 -26 14 -59 40 -72 60
-21 31 -23 43 -18 98 8 89 91 239 219 401 121 150 159 196 166 196 4 0 18 -28
31 -63 29 -74 95 -194 87 -156 -54 249 -1 524 168 860 102 205 206 377 235
389 61 26 118 104 141 190 32 118 2 336 -67 493 -28 65 -113 200 -158 252 -24
27 -23 24 9 -40 102 -205 118 -563 33 -734 -31 -62 -59 -79 -145 -86 -102 -8
-130 -13 -267 -46 -122 -31 -134 -34 -195 -47 l-35 -8 50 -8 c28 -4 69 -16 93
-27 l44 -19 -23 -32 c-94 -134 -309 -299 -459 -353 -132 -48 -231 7 -235 129
-3 82 39 162 129 246 l34 32 -19 44 c-57 127 -7 289 151 494 135 175 421 367
718 481 l63 24 114 160 c129 182 320 424 398 504 28 30 86 81 127 114 41 33
76 63 78 67 1 3 -13 39 -33 78 -55 111 -120 303 -139 407 -3 17 -8 41 -11 55
-33 151 -40 421 -14 492 21 56 73 106 127 122 58 17 127 14 169 -8z"/>
<path d="M4348 5349 c-64 -15 -138 -61 -207 -129 -126 -124 -173 -221 -177
-369 -1 -71 3 -108 17 -149 20 -59 58 -140 74 -159 6 -6 28 -33 50 -60 78 -96
189 -171 285 -192 67 -15 205 -6 280 18 172 54 328 203 374 355 9 28 14 79 12
120 -3 105 -43 175 -165 296 -102 100 -164 157 -197 177 -156 98 -234 119
-346 92z m438 -444 c34 -22 75 -92 81 -135 6 -44 -17 -87 -56 -102 -73 -30
-177 -5 -204 49 -34 66 3 161 77 194 43 19 66 18 102 -6z"/>
<path d="M3582 4405 c-58 -25 -70 -94 -26 -139 46 -46 114 -31 140 29 30 73
-40 141 -114 110z"/>
<path d="M3390 4212 c-48 -23 -63 -79 -33 -120 42 -56 111 -54 146 5 26 46 9
99 -39 119 -41 17 -32 17 -74 -4z"/>
<path d="M3791 4192 c-34 -5 -62 -25 -130 -92 -76 -76 -97 -107 -100 -152 -3
-51 18 -87 106 -174 135 -136 184 -136 316 0 70 72 86 94 93 131 10 56 -7 88
-90 173 -100 103 -135 123 -195 114z"/>
</g>
</svg>
