<?xml version="1.0" encoding="utf-8"?>
<!-- Generator: Adobe Illustrator 21.1.0, SVG Export Plug-In . SVG Version: 6.00 Build 0)  -->
<svg version="1.1" id="Ebene_1" xmlns="http://www.w3.org/2000/svg" xmlns:xlink="http://www.w3.org/1999/xlink" x="0px" y="0px"
	 viewBox="0 0 416.6 416.6" style="enable-background:new 0 0 416.6 416.6;" xml:space="preserve">
<title>logo</title>
<path d="M303.8,237.3c-18.4-12.2-29-22.5-38.1-40.9c-6.3,12.6-20.9,31.4-45.6,46.2c-12.3,38.4-71,111.8-90,101.4
	c-5.6-3.1-6.7-7.1-5.4-11.3c1.4-10.5,23.1-34.6,23.1-34.6s0.5,5.1,7.4,15.7c-9.2-28.5,15.1-63.6,21.6-75.5
	c10.1-3.2,10.9-16.2,10.9-16.2c0.6-16.2-5.5-31.9-17-43.3c6.2,7.6,8.3,19.1,8.6,29.7l0,0v3.5c-0.3,8.7-2.9,20.8-8.6,20.8l0,0
	c-6.6,0-13.1,1-19.4,3l-14.2,3.4c0,0,7.6-0.3,11.6,3.2c-4.5,7.4-14.7,16.6-25.9,21.8c-16.4,7.6-21.1-7.5-12.8-17.4
	c1.9-2.2,3.9-4.2,6.1-6.1c-1.3-1.5-2.2-3.3-2.3-5.3l0,0c-1.1-5-0.5-11.5,6.6-21.9c1.5-2.4,3.2-4.6,5.1-6.7l0.2-0.2l0.3-0.3v-0.2
	l1.6-1.7c8.5-8.7,21.8-17.7,42.9-25.8c24.7-35.9,33.7-42.7,33.7-42.7c2.8-2.7,5.9-5.1,9.2-7.1c-12.8-22.3-15.4-53.7-12.1-62.2
	c-0.3,0.4-0.5,0.9-0.7,1.4c0.8-2,1.9-3.8,3.4-5.4c3.5-4.1,15.4-6.3,19.6,2.5c2.3,4.7,2.7,10.7,2.6,15.3
	c-9.4-0.5-17.9,10.3-17.9,10.3c5.5-2.4,11.5-3.6,17.5-3.7c2.2,2,4.1,4.1,5.8,6.5c-4.3,8.2-11.5,25.5-6.3,43.6
	c0.8,3.3,2.1,6.4,3.8,9.3l0.2,0.3l0.4,0.5c8.6,12.9,24.2,14.4,24.2,14.4c-7.3-3.7-13.4-9.5-17.3-16.7c-1.7-3-3-6.3-4-9.6
	c-4.2-16,2-25.4,5.5-31.7c12.1-18.7,37.1-24,55.7-11.9s24,37.1,11.9,55.7c-3.6,5.6-8.5,10.1-14.3,13.4c2.7,7.2-0.2,15.9-0.2,15.9
	c6.7,8.4,7,13.3,6.8,17.8c-8.5-1.4-16.8,4.3-16.8,4.3s16.4-3.9,26,4.6c5,5.2,9.3,11,12.8,17.2c3.5,6.4,20,6.8,18.1,18.3
	C336.2,250.4,323.5,250.2,303.8,237.3 M208.3,31.6c-97.6,0-176.7,79.1-176.7,176.7S110.7,385,208.3,385S385,305.9,385,208.3l0,0
	C385,110.7,305.9,31.6,208.3,31.6"/>
<g>
	<path d="M219,162.9L219,162.9c2.1-2.1,2.1-5.4,0-7.5c-2.1-2.1-5.4-2.1-7.5,0c-2.1,2.1-2.1,5.4,0,7.5C213.6,165,216.9,165,219,162.9
		z"/>
	<path d="M200.3,166.6L200.3,166.6c-2.1,2.1-2.1,5.4,0,7.5s5.4,2.1,7.5,0s2.1-5.4,0-7.5C205.7,164.5,202.4,164.5,200.3,166.6z"/>
	<path d="M232.8,169.4c-3.2-3.2-8.5-3.2-11.7,0l-6.9,6.9c-3.2,3.2-3.2,8.5,0,11.7l7.6,7.6c3.2,3.2,8.5,3.2,11.7,0l6.9-6.9
		c3.2-3.2,3.2-8.5,0-11.7C240.4,176.9,232.8,169.4,232.8,169.4z"/>
	<path d="M286.2,109.4c-13.6-12.8-27.2-18.3-42.7-0.6s-5.7,38.3,8.5,48.4c14.2,10.1,37.5,3.1,46.3-13.5l0,0
		C307,127.1,294.7,117.3,286.2,109.4z M274.8,136.9c-5.5-6.5,4.7-18.4,11.2-11.3C297.7,138.6,280.3,143.4,274.8,136.9z"/>
</g>
</svg>
