<?xml version="1.0" encoding="utf-8"?>
<!-- Generator: Adobe Illustrator 21.1.0, SVG Export Plug-In . SVG Version: 6.00 Build 0)  -->
<svg version="1.1" id="Ebene_1" xmlns="http://www.w3.org/2000/svg" xmlns:xlink="http://www.w3.org/1999/xlink" x="0px" y="0px"
	 viewBox="0 0 1277.8 353.4" style="enable-background:new 0 0 1277.8 353.4;" xml:space="preserve">
<style type="text/css">
	.st0{fill:#FFFFFF;}
</style>
<title>logo</title>
<path class="st0" d="M598.9,181.8h-20.3c-3.1,0-5.6,2.5-5.6,5.6v38.9l-0.4,0.3c-27.9,23.6-69.6,20-93.2-7.8s-20-69.6,7.8-93.2
	c23.4-19.8,57.4-20.9,82-2.6c2.2,1.6,5.3,1.4,7.3-0.5L591,108c1.1-1.1,1.7-2.7,1.6-4.3c-0.1-1.6-0.9-3.1-2.1-4.1
	c-42.2-33.5-103.5-26.3-137,15.9s-26.3,103.6,15.9,137.1c40.6,32.1,99.2,27,133.6-11.7c0.9-1,1.4-2.3,1.4-3.7v-49.8
	c0.1-3-2.2-5.5-5.2-5.6C599.1,181.8,599,181.8,598.9,181.8"/>
<path class="st0" d="M1276.9,87.5c-1-1.6-2.8-2.5-4.7-2.5h-22.1c-2.2,0-4.2,1.3-5.1,3.4l-62.2,144.4l-63.3-144.4
	c-0.9-2-2.9-3.3-5.1-3.3h-22.1c-1.9,0-3.7,0.9-4.7,2.5s-1.2,3.6-0.4,5.3l76.7,174.9c0.9,2,2.9,3.3,5.1,3.3h27.9
	c2.2,0,4.2-1.3,5.1-3.4l75.3-174.9C1278.1,91.1,1278,89.1,1276.9,87.5"/>
<path class="st0" d="M987.1,88.3c-0.9-2-2.9-3.3-5.1-3.3h-27.9c-2.2,0-4.2,1.3-5.1,3.4l-75.3,174.9c-0.7,1.7-0.5,3.7,0.5,5.3
	c1,1.6,2.8,2.5,4.7,2.5H901c2.2,0,4.2-1.3,5.1-3.4l62.2-144.4l63.3,144.4c0.9,2,2.9,3.3,5.1,3.3h22.1c1.9,0,3.7-0.9,4.7-2.5
	s1.2-3.6,0.4-5.3L987.1,88.3L987.1,88.3L987.1,88.3z"/>
<path class="st0" d="M785.3,207.1l1.2-0.6c31.8-15.3,45.2-53.5,29.9-85.3c-10.6-22.1-33-36.2-57.5-36.2H678c-3.1,0-5.6,2.5-5.6,5.6
	v174.9c0,3.1,2.5,5.6,5.6,5.6h20.3c3.1,0,5.6-2.5,5.6-5.6v-149H759c17.9,0.1,32.4,14.7,32.3,32.7c-0.1,14.8-10.2,27.7-24.5,31.3
	c-2.5,0.7-5.2,1-7.8,1h-20.3c-2.1,0-4,1.2-5,3.1c-1,1.9-0.8,4.1,0.5,5.8l57.4,78.4c1,1.4,2.7,2.3,4.5,2.3h25.2c2.1,0,4-1.2,5-3.1
	s0.8-4.1-0.5-5.8L785.3,207.1L785.3,207.1z"/>
<path class="st0" d="M272.2,205.7c-18.4-12.2-29-22.5-38.1-40.9c-6.3,12.6-20.9,31.4-45.6,46.2c-12.3,38.4-71,111.8-90,101.4
	c-5.6-3.1-6.7-7.1-5.4-11.3c1.4-10.5,23.1-34.6,23.1-34.6s0.5,5.1,7.4,15.7c-9.2-28.5,15.1-63.6,21.6-75.5
	c10.1-3.2,10.9-16.2,10.9-16.2c0.6-16.2-5.5-31.9-17-43.3c6.2,7.6,8.3,19.1,8.6,29.7l0,0v3.5c-0.3,8.7-2.9,20.8-8.6,20.8l0,0
	c-6.6,0-13.1,1-19.4,3l-14.2,3.4c0,0,7.6-0.3,11.6,3.2c-4.5,7.4-14.7,16.6-25.9,21.8c-16.4,7.6-21.1-7.5-12.8-17.4
	c1.9-2.2,3.9-4.2,6.1-6.1c-1.3-1.5-2.2-3.3-2.3-5.3l0,0c-1.1-5-0.5-11.5,6.6-21.9c1.5-2.4,3.2-4.6,5.1-6.7l0.2-0.2l0.3-0.3v-0.2
	l1.6-1.7c8.5-8.7,21.8-17.7,42.9-25.8c24.7-35.9,33.7-42.7,33.7-42.7c2.8-2.7,5.9-5.1,9.2-7.1C169,74.9,166.4,43.5,169.7,35
	c-0.3,0.4-0.5,0.9-0.7,1.4c0.8-2,1.9-3.8,3.4-5.4c3.5-4.1,15.4-6.3,19.6,2.5c2.3,4.7,2.7,10.7,2.6,15.3
	c-9.4-0.5-17.9,10.3-17.9,10.3c5.5-2.4,11.5-3.6,17.5-3.7c2.2,2,4.1,4.1,5.8,6.5c-4.3,8.2-11.5,25.5-6.3,43.6
	c0.8,3.3,2.1,6.4,3.8,9.3l0.2,0.3l0.4,0.5c8.6,12.9,24.2,14.4,24.2,14.4c-7.3-3.7-13.4-9.5-17.3-16.7c-1.7-3-3-6.3-4-9.6
	c-4.2-16,2-25.4,5.5-31.7c12.1-18.7,37.1-24,55.7-11.9s24,37.1,11.9,55.7c-3.6,5.6-8.5,10.1-14.3,13.4c2.7,7.2-0.2,15.9-0.2,15.9
	c6.7,8.4,7,13.3,6.8,17.8c-8.5-1.4-16.8,4.3-16.8,4.3s16.4-3.9,26,4.6c5,5.2,9.3,11,12.8,17.2c3.5,6.4,20,6.8,18.1,18.3
	C304.6,218.8,291.9,218.6,272.2,205.7 M176.7,0C79.1,0,0,79.1,0,176.7s79.1,176.7,176.7,176.7s176.7-79.1,176.7-176.7l0,0
	C353.4,79.1,274.3,0,176.7,0"/>
<g>
	<path class="st0" d="M187.4,131.3L187.4,131.3c2.1-2.1,2.1-5.4,0-7.5s-5.4-2.1-7.5,0s-2.1,5.4,0,7.5
		C182,133.4,185.3,133.4,187.4,131.3z"/>
	<path class="st0" d="M168.7,135L168.7,135c-2.1,2.1-2.1,5.4,0,7.5s5.4,2.1,7.5,0s2.1-5.4,0-7.5C174.1,132.9,170.8,132.9,168.7,135z
		"/>
	<path class="st0" d="M201.2,137.8c-3.2-3.2-8.5-3.2-11.7,0l-6.9,6.9c-3.2,3.2-3.2,8.5,0,11.7l7.6,7.6c3.2,3.2,8.5,3.2,11.7,0
		l6.9-6.9c3.2-3.2,3.2-8.5,0-11.7C208.8,145.3,201.2,137.8,201.2,137.8z"/>
	<path class="st0" d="M254.6,77.8C241,65,227.4,59.5,211.9,77.2s-5.7,38.3,8.5,48.4s37.5,3.1,46.3-13.5l0,0
		C275.4,95.5,263.1,85.7,254.6,77.8z M243.2,105.3c-5.5-6.5,4.7-18.4,11.2-11.3C266.1,107,248.7,111.8,243.2,105.3z"/>
</g>
</svg>
