<?xml version="1.0" encoding="utf-8"?>
<!-- Generator: Adobe Illustrator 21.1.0, SVG Export Plug-In . SVG Version: 6.00 Build 0)  -->
<svg version="1.1" id="Ebene_1" xmlns="http://www.w3.org/2000/svg" xmlns:xlink="http://www.w3.org/1999/xlink" x="0px" y="0px"
	 viewBox="0 0 347 470" style="enable-background:new 0 0 347 470;" xml:space="preserve">
<style type="text/css">
	.st0{fill-rule:evenodd;clip-rule:evenodd;}
	.st1{fill:#FFFFFF;}
</style>
<g>
	<path class="st0" d="M173.5,19c86.9,0,157.3,62.8,157.3,157.3c0,92.2-79.4,131.8-121.6,190.8c-34.5,48.2-35.7,83.9-35.7,83.9
		s-0.3-35.9-35.7-83.9c-43.5-59-121.6-95.9-121.6-190.8C16.2,81.8,86.6,19,173.5,19z"/>
</g>
<g>
	<path class="st1" d="M233.9,193c-11.6-7.7-18.3-14.2-24-25.8c-4,7.9-13.2,19.8-28.7,29.1c-7.7,24.2-44.7,70.4-56.7,63.9
		c-3.5-2-4.2-4.5-3.4-7.1c0.9-6.6,14.6-21.8,14.6-21.8s0.3,3.2,4.7,9.9c-5.8-18,9.5-40.1,13.6-47.6c6.4-2,6.9-10.2,6.9-10.2
		c0.4-10.2-3.5-20.1-10.7-27.3c3.9,4.8,5.2,12,5.4,18.7l0,0v2.2c-0.2,5.5-1.8,13.1-5.4,13.1l0,0c-4.2,0-8.3,0.6-12.2,1.9l-8.9,2.1
		c0,0,4.8-0.2,7.3,2c-2.8,4.7-9.3,10.5-16.3,13.7c-10.3,4.8-13.3-4.7-8.1-11c1.2-1.4,2.5-2.6,3.8-3.8c-0.8-0.9-1.4-2.1-1.4-3.3l0,0
		c-0.7-3.1-0.3-7.2,4.2-13.8c0.9-1.5,2-2.9,3.2-4.2l0.1-0.1l0.2-0.2v-0.1l1-1.1c5.4-5.5,13.7-11.1,27-16.3
		c15.6-22.6,21.2-26.9,21.2-26.9c1.8-1.7,3.7-3.2,5.8-4.5c-8.1-14-9.7-33.8-7.6-39.2c-0.2,0.3-0.3,0.6-0.4,0.9
		c0.5-1.3,1.2-2.4,2.1-3.4c2.2-2.6,9.7-4,12.3,1.6c1.4,3,1.7,6.7,1.6,9.6c-5.9-0.3-11.3,6.5-11.3,6.5c3.5-1.5,7.2-2.3,11-2.3
		c1.4,1.3,2.6,2.6,3.7,4.1c-2.7,5.2-7.2,16.1-4,27.5c0.5,2.1,1.3,4,2.4,5.9l0.1,0.2l0.3,0.3c5.4,8.1,15.2,9.1,15.2,9.1
		c-4.6-2.3-8.4-6-10.9-10.5c-1.1-1.9-1.9-4-2.5-6c-2.6-10.1,1.3-16,3.5-20c7.6-11.8,23.4-15.1,35.1-7.5s15.1,23.4,7.5,35.1
		c-2.3,3.5-5.4,6.4-9,8.4c1.7,4.5-0.1,10-0.1,10c4.2,5.3,4.4,8.4,4.3,11.2c-5.4-0.9-10.6,2.7-10.6,2.7s10.3-2.5,16.4,2.9
		c3.1,3.3,5.9,6.9,8.1,10.8c2.2,4,12.6,4.3,11.4,11.5C254.3,201.2,246.3,201.1,233.9,193 M173.7,63.4
		c-61.5,0-111.3,49.8-111.3,111.3S112.2,286,173.7,286S285,236.2,285,174.7l0,0C285,113.2,235.2,63.4,173.7,63.4"/>
	<g>
		<path class="st1" d="M180.4,146.1L180.4,146.1c1.3-1.3,1.3-3.4,0-4.7s-3.4-1.3-4.7,0s-1.3,3.4,0,4.7
			C177,147.4,179.1,147.4,180.4,146.1z"/>
		<path class="st1" d="M168.7,148.4L168.7,148.4c-1.3,1.3-1.3,3.4,0,4.7s3.4,1.3,4.7,0c1.3-1.3,1.3-3.4,0-4.7
			C172.1,147.1,170,147.1,168.7,148.4z"/>
		<path class="st1" d="M189.1,150.2c-2-2-5.4-2-7.4,0l-4.3,4.3c-2,2-2,5.4,0,7.4l4.8,4.8c2,2,5.4,2,7.4,0l4.3-4.3c2-2,2-5.4,0-7.4
			C193.9,154.9,189.1,150.2,189.1,150.2z"/>
		<path class="st1" d="M222.8,112.4c-8.6-8.1-17.1-11.5-26.9-0.4c-9.8,11.1-3.6,24.1,5.4,30.5c8.9,6.4,23.6,2,29.2-8.5l0,0
			C235.9,123.6,228.1,117.4,222.8,112.4z M215.6,129.7c-3.5-4.1,3-11.6,7.1-7.1C230,130.8,219.1,133.8,215.6,129.7z"/>
	</g>
</g>
</svg>
